<svg xmlns="http://www.w3.org/2000/svg" xmlns:xlink="http://www.w3.org/1999/xlink" width="500" zoomAndPan="magnify" viewBox="0 0 375 374.999991" height="500" preserveAspectRatio="xMidYMid meet" version="1.0"><defs><g/><clipPath id="0651607f7a"><path d="M 17 30 L 319 30 L 319 339 L 17 339 Z M 17 30 " clip-rule="nonzero"/></clipPath><clipPath id="e86513769d"><path d="M 383.578125 90.253906 L 290.882812 383.449219 L -22.335938 284.417969 L 70.359375 -8.773438 Z M 383.578125 90.253906 " clip-rule="nonzero"/></clipPath><clipPath id="e3a30419b3"><path d="M 383.578125 90.253906 L 290.882812 383.449219 L -22.335938 284.417969 L 70.359375 -8.773438 Z M 383.578125 90.253906 " clip-rule="nonzero"/></clipPath></defs><g fill="#0d5ea6" fill-opacity="1"><g transform="translate(32.969691, 214.929023)"><g><path d="M 16.09375 -39.8125 L 0.3125 -39.8125 L 0.3125 -53.90625 L 50.046875 -53.90625 L 50.046875 -39.8125 L 34.265625 -39.8125 L 34.265625 0 L 16.09375 0 Z M 16.09375 -39.8125 "/></g></g></g><g fill="#0d5ea6" fill-opacity="1"><g transform="translate(83.331531, 214.929023)"><g><path d="M 20.40625 -37.578125 C 23.488281 -41.117188 28.03125 -42.890625 34.03125 -42.890625 L 34.03125 -27.484375 C 32.644531 -27.691406 31.363281 -27.796875 30.1875 -27.796875 C 24.226562 -27.796875 21.25 -24.769531 21.25 -18.71875 L 21.25 0 L 3.84375 0 L 3.84375 -42.125 L 20.40625 -42.125 Z M 20.40625 -37.578125 "/></g></g></g><g fill="#0d5ea6" fill-opacity="1"><g transform="translate(118.4462, 214.929023)"><g><path d="M 22.71875 -42.890625 C 30.101562 -42.890625 35.742188 -41.234375 39.640625 -37.921875 C 43.546875 -34.609375 45.5 -29.515625 45.5 -22.640625 L 45.5 0 L 29.34375 0 L 29.34375 -5.546875 C 27.332031 -1.335938 23.351562 0.765625 17.40625 0.765625 C 14.0625 0.765625 11.222656 0.191406 8.890625 -0.953125 C 6.554688 -2.109375 4.785156 -3.675781 3.578125 -5.65625 C 2.367188 -7.632812 1.765625 -9.851562 1.765625 -12.3125 C 1.765625 -16.476562 3.351562 -19.640625 6.53125 -21.796875 C 9.71875 -23.953125 14.546875 -25.03125 21.015625 -25.03125 L 28.03125 -25.03125 C 27.46875 -28.3125 24.820312 -29.953125 20.09375 -29.953125 C 18.195312 -29.953125 16.269531 -29.65625 14.3125 -29.0625 C 12.363281 -28.476562 10.695312 -27.671875 9.3125 -26.640625 L 3.765625 -38.109375 C 6.179688 -39.597656 9.097656 -40.765625 12.515625 -41.609375 C 15.929688 -42.460938 19.332031 -42.890625 22.71875 -42.890625 Z M 22.640625 -9.703125 C 23.867188 -9.703125 24.96875 -10.035156 25.9375 -10.703125 C 26.914062 -11.367188 27.640625 -12.367188 28.109375 -13.703125 L 28.109375 -16.625 L 23.796875 -16.625 C 20.253906 -16.625 18.484375 -15.445312 18.484375 -13.09375 C 18.484375 -12.113281 18.851562 -11.300781 19.59375 -10.65625 C 20.34375 -10.019531 21.359375 -9.703125 22.640625 -9.703125 Z M 22.640625 -9.703125 "/></g></g></g><g fill="#0d5ea6" fill-opacity="1"><g transform="translate(167.652966, 214.929023)"><g><path d="M 50.75 -42.125 L 33.796875 0 L 15.78125 0 L -1.15625 -42.125 L 16.703125 -42.125 L 25.171875 -19.5625 L 34.265625 -42.125 Z M 50.75 -42.125 "/></g></g></g><g fill="#0d5ea6" fill-opacity="1"><g transform="translate(217.244748, 214.929023)"><g><path d="M 48.65625 -21.09375 C 48.65625 -20.84375 48.582031 -19.484375 48.4375 -17.015625 L 19.171875 -17.015625 C 19.785156 -15.421875 20.8125 -14.203125 22.25 -13.359375 C 23.6875 -12.515625 25.484375 -12.09375 27.640625 -12.09375 C 29.492188 -12.09375 31.046875 -12.320312 32.296875 -12.78125 C 33.554688 -13.238281 34.929688 -14.035156 36.421875 -15.171875 L 45.5 -6 C 41.394531 -1.488281 35.265625 0.765625 27.109375 0.765625 C 22.023438 0.765625 17.554688 -0.164062 13.703125 -2.03125 C 9.859375 -3.90625 6.878906 -6.507812 4.765625 -9.84375 C 2.660156 -13.1875 1.609375 -16.9375 1.609375 -21.09375 C 1.609375 -25.300781 2.648438 -29.0625 4.734375 -32.375 C 6.816406 -35.6875 9.664062 -38.265625 13.28125 -40.109375 C 16.90625 -41.960938 20.972656 -42.890625 25.484375 -42.890625 C 29.742188 -42.890625 33.628906 -42.039062 37.140625 -40.34375 C 40.660156 -38.65625 43.457031 -36.164062 45.53125 -32.875 C 47.613281 -29.59375 48.65625 -25.664062 48.65625 -21.09375 Z M 25.640625 -31.03125 C 23.847656 -31.03125 22.359375 -30.539062 21.171875 -29.5625 C 19.992188 -28.59375 19.222656 -27.207031 18.859375 -25.40625 L 32.421875 -25.40625 C 32.054688 -27.15625 31.285156 -28.53125 30.109375 -29.53125 C 28.929688 -30.53125 27.441406 -31.03125 25.640625 -31.03125 Z M 25.640625 -31.03125 "/></g></g></g><g fill="#0d5ea6" fill-opacity="1"><g transform="translate(267.52959, 214.929023)"><g><path d="M 3.84375 -57.140625 L 21.25 -57.140625 L 21.25 0 L 3.84375 0 Z M 3.84375 -57.140625 "/></g></g></g><g fill="#0d5ea6" fill-opacity="1"><g transform="translate(292.633514, 214.929023)"><g><path d="M 20.328125 0.765625 C 16.734375 0.765625 13.191406 0.378906 9.703125 -0.390625 C 6.210938 -1.160156 3.390625 -2.160156 1.234375 -3.390625 L 6 -14.859375 C 7.957031 -13.679688 10.269531 -12.757812 12.9375 -12.09375 C 15.601562 -11.425781 18.195312 -11.09375 20.71875 -11.09375 C 22.71875 -11.09375 24.113281 -11.257812 24.90625 -11.59375 C 25.707031 -11.925781 26.109375 -12.425781 26.109375 -13.09375 C 26.109375 -13.757812 25.601562 -14.21875 24.59375 -14.46875 C 23.59375 -14.726562 21.96875 -14.988281 19.71875 -15.25 C 16.269531 -15.65625 13.335938 -16.175781 10.921875 -16.8125 C 8.515625 -17.457031 6.398438 -18.703125 4.578125 -20.546875 C 2.753906 -22.398438 1.84375 -25.046875 1.84375 -28.484375 C 1.84375 -31.210938 2.664062 -33.648438 4.3125 -35.796875 C 5.957031 -37.953125 8.410156 -39.671875 11.671875 -40.953125 C 14.929688 -42.242188 18.84375 -42.890625 23.40625 -42.890625 C 26.59375 -42.890625 29.710938 -42.59375 32.765625 -42 C 35.816406 -41.414062 38.421875 -40.554688 40.578125 -39.421875 L 35.8125 -27.953125 C 32.113281 -30.003906 28.054688 -31.03125 23.640625 -31.03125 C 19.835938 -31.03125 17.9375 -30.363281 17.9375 -29.03125 C 17.9375 -28.363281 18.445312 -27.890625 19.46875 -27.609375 C 20.5 -27.328125 22.117188 -27.054688 24.328125 -26.796875 C 27.765625 -26.390625 30.675781 -25.847656 33.0625 -25.171875 C 35.457031 -24.503906 37.566406 -23.25 39.390625 -21.40625 C 41.210938 -19.5625 42.125 -16.914062 42.125 -13.46875 C 42.125 -10.851562 41.300781 -8.46875 39.65625 -6.3125 C 38.007812 -4.15625 35.539062 -2.4375 32.25 -1.15625 C 28.96875 0.125 24.992188 0.765625 20.328125 0.765625 Z M 20.328125 0.765625 "/></g></g></g><g fill="#0d5ea6" fill-opacity="1"><g transform="translate(336.141854, 214.929023)"><g><path d="M 11.703125 0.765625 C 8.773438 0.765625 6.347656 -0.164062 4.421875 -2.03125 C 2.503906 -3.90625 1.546875 -6.304688 1.546875 -9.234375 C 1.546875 -12.160156 2.503906 -14.535156 4.421875 -16.359375 C 6.347656 -18.179688 8.773438 -19.09375 11.703125 -19.09375 C 14.628906 -19.09375 17.054688 -18.179688 18.984375 -16.359375 C 20.910156 -14.535156 21.875 -12.160156 21.875 -9.234375 C 21.875 -6.304688 20.910156 -3.90625 18.984375 -2.03125 C 17.054688 -0.164062 14.628906 0.765625 11.703125 0.765625 Z M 11.703125 0.765625 "/></g></g></g><g fill="#0d5ea6" fill-opacity="1"><g transform="translate(359.555237, 214.929023)"><g/></g></g><g clip-path="url(#0651607f7a)"><g clip-path="url(#e86513769d)"><g clip-path="url(#e3a30419b3)"><path fill="#0d5ea6" d="M 314.96875 300.636719 L 301.210938 286.269531 L 298.59375 288.773438 C 298.472656 288.894531 298.328125 288.984375 298.167969 289.046875 C 298.007812 289.109375 297.839844 289.136719 297.667969 289.132812 C 297.496094 289.128906 297.332031 289.09375 297.175781 289.023438 C 297.015625 288.957031 296.878906 288.859375 296.757812 288.734375 L 296.71875 288.691406 C 296.601562 288.566406 296.515625 288.425781 296.453125 288.269531 C 296.394531 288.113281 296.363281 287.949219 296.367188 287.777344 C 296.371094 287.609375 296.40625 287.449219 296.46875 287.292969 C 296.535156 287.136719 296.628906 287 296.75 286.878906 L 299.363281 284.371094 L 293.414062 278.167969 L 282.648438 288.492188 L 283.867188 300.71875 C 283.890625 300.859375 283.871094 300.996094 283.804688 301.121094 C 283.738281 301.25 283.640625 301.34375 283.507812 301.40625 C 283.378906 301.464844 283.242188 301.480469 283.101562 301.449219 C 282.960938 301.417969 282.84375 301.347656 282.75 301.238281 L 264.363281 282.058594 C 264.160156 281.839844 264.125 281.597656 264.261719 281.332031 C 264.398438 281.066406 264.613281 280.949219 264.910156 280.988281 L 277.09375 282.714844 L 287.863281 272.394531 L 281.910156 266.191406 L 279.296875 268.691406 C 279.171875 268.8125 279.03125 268.902344 278.871094 268.960938 C 278.710938 269.023438 278.542969 269.054688 278.371094 269.050781 C 278.203125 269.046875 278.035156 269.011719 277.878906 268.941406 C 277.722656 268.875 277.582031 268.777344 277.464844 268.65625 L 277.421875 268.613281 C 277.304688 268.488281 277.21875 268.347656 277.15625 268.183594 C 277.097656 268.023438 277.070312 267.859375 277.074219 267.6875 C 277.078125 267.515625 277.117188 267.351562 277.1875 267.195312 C 277.257812 267.039062 277.355469 266.902344 277.476562 266.78125 L 280.089844 264.28125 L 266.332031 249.910156 C 266.144531 249.703125 266.042969 249.457031 266.03125 249.179688 C 266.019531 248.898438 266.097656 248.644531 266.265625 248.421875 C 266.433594 248.195312 266.652344 248.050781 266.925781 247.984375 C 267.199219 247.921875 267.460938 247.949219 267.714844 248.070312 L 286.710938 257.929688 L 290.484375 254.3125 C 290.605469 254.199219 290.746094 254.109375 290.90625 254.050781 C 291.0625 253.988281 291.226562 253.960938 291.394531 253.960938 C 291.5625 253.964844 291.726562 254 291.882812 254.066406 C 292.039062 254.132812 292.175781 254.226562 292.292969 254.34375 L 292.335938 254.390625 C 292.449219 254.511719 292.539062 254.652344 292.597656 254.8125 C 292.660156 254.96875 292.6875 255.132812 292.6875 255.300781 C 292.683594 255.46875 292.648438 255.632812 292.582031 255.789062 C 292.515625 255.945312 292.421875 256.082031 292.304688 256.199219 L 289.183594 259.195312 L 297.242188 263.371094 L 307.414062 253.625 C 307.601562 253.441406 307.808594 253.28125 308.03125 253.140625 C 308.25 253 308.484375 252.878906 308.730469 252.785156 C 308.972656 252.6875 309.226562 252.617188 309.484375 252.574219 C 309.742188 252.527344 310.003906 252.507812 310.265625 252.511719 C 310.527344 252.519531 310.789062 252.550781 311.042969 252.605469 C 311.300781 252.664062 311.550781 252.746094 311.789062 252.851562 C 312.03125 252.957031 312.257812 253.082031 312.472656 253.234375 C 312.6875 253.386719 312.886719 253.554688 313.066406 253.746094 C 313.25 253.933594 313.410156 254.140625 313.550781 254.359375 C 313.695312 254.582031 313.8125 254.816406 313.90625 255.058594 C 314.003906 255.304688 314.074219 255.554688 314.117188 255.816406 C 314.164062 256.074219 314.183594 256.335938 314.179688 256.597656 C 314.171875 256.859375 314.140625 257.117188 314.085938 257.375 C 314.027344 257.632812 313.945312 257.878906 313.839844 258.121094 C 313.734375 258.359375 313.609375 258.589844 313.457031 258.804688 C 313.308594 259.019531 313.136719 259.21875 312.945312 259.398438 L 302.777344 269.148438 L 306.621094 277.375 L 309.738281 274.382812 C 309.863281 274.265625 310.007812 274.175781 310.167969 274.113281 C 310.328125 274.050781 310.492188 274.019531 310.664062 274.023438 C 310.835938 274.027344 311 274.0625 311.15625 274.132812 C 311.316406 274.203125 311.453125 274.296875 311.574219 274.421875 L 311.617188 274.464844 C 311.730469 274.589844 311.820312 274.730469 311.878906 274.886719 C 311.941406 275.046875 311.96875 275.210938 311.964844 275.378906 C 311.960938 275.546875 311.925781 275.710938 311.859375 275.863281 C 311.792969 276.019531 311.703125 276.15625 311.582031 276.277344 L 307.8125 279.894531 L 316.859375 299.289062 C 317.007812 299.550781 317.046875 299.824219 316.980469 300.117188 C 316.914062 300.40625 316.761719 300.640625 316.519531 300.8125 C 316.277344 300.984375 316.007812 301.054688 315.710938 301.019531 C 315.414062 300.988281 315.167969 300.859375 314.96875 300.636719 Z M 269.648438 305.234375 C 270.019531 304.933594 270.355469 304.601562 270.660156 304.238281 C 270.96875 303.871094 271.234375 303.480469 271.460938 303.0625 C 271.691406 302.644531 271.875 302.210938 272.019531 301.753906 C 272.160156 301.300781 272.257812 300.835938 272.308594 300.363281 C 272.359375 299.890625 272.367188 299.414062 272.324219 298.941406 C 272.28125 298.46875 272.195312 298 272.058594 297.542969 C 271.925781 297.085938 271.75 296.648438 271.527344 296.226562 C 271.308594 295.804688 271.050781 295.40625 270.75 295.035156 C 270.453125 294.664062 270.121094 294.328125 269.753906 294.019531 C 269.390625 293.714844 269 293.449219 268.582031 293.21875 C 268.164062 292.988281 267.726562 292.804688 267.273438 292.660156 C 266.820312 292.519531 266.355469 292.421875 265.882812 292.371094 C 265.410156 292.316406 264.933594 292.3125 264.460938 292.355469 C 263.984375 292.394531 263.519531 292.484375 263.0625 292.617188 C 262.605469 292.75 262.167969 292.925781 261.746094 293.148438 C 261.320312 293.367188 260.925781 293.625 260.554688 293.925781 L 260.480469 293.984375 C 254.464844 298.832031 248.117188 303.199219 241.445312 307.089844 L 236.386719 309.90625 L 231.199219 312.464844 L 229.894531 313.097656 L 228.566406 313.671875 L 225.925781 314.828125 C 225.035156 315.207031 224.15625 315.605469 223.261719 315.964844 L 220.546875 316.980469 C 205.921875 322.492188 190.792969 325.519531 175.171875 326.058594 L 169.355469 326.164062 L 163.539062 325.996094 C 162.570312 325.992188 161.601562 325.902344 160.632812 325.828125 L 157.730469 325.605469 C 155.789062 325.496094 153.867188 325.226562 151.941406 324.984375 C 144.210938 324.019531 136.609375 322.433594 129.136719 320.230469 C 114.257812 315.746094 99.972656 309.027344 87.269531 299.976562 L 84.867188 298.304688 L 82.550781 296.519531 L 80.234375 294.726562 L 79.082031 293.828125 L 77.96875 292.875 L 73.53125 289.058594 L 69.289062 285.019531 C 63.71875 279.503906 58.589844 273.605469 53.902344 267.324219 C 49.277344 260.976562 45.160156 254.316406 41.546875 247.34375 L 38.953125 242.066406 L 36.625 236.667969 C 36.214844 235.773438 35.875 234.855469 35.535156 233.933594 L 34.507812 231.183594 C 34.171875 230.257812 33.792969 229.347656 33.496094 228.417969 L 32.601562 225.613281 C 30.1875 218.125 28.417969 210.492188 27.285156 202.707031 C 26.15625 194.90625 25.640625 187.0625 25.738281 179.179688 C 25.835938 171.277344 26.589844 163.441406 28.003906 155.664062 C 29.386719 147.878906 31.382812 140.25 33.984375 132.777344 C 36.644531 125.308594 39.867188 118.09375 43.660156 111.132812 C 44.65625 109.421875 45.554688 107.660156 46.597656 105.976562 L 49.738281 100.96875 C 51.980469 97.707031 54.207031 94.425781 56.703125 91.328125 L 58.523438 88.980469 L 60.457031 86.722656 L 62.394531 84.476562 L 63.375 83.339844 L 64.402344 82.261719 L 68.496094 77.949219 L 72.8125 73.847656 C 78.683594 68.472656 84.921875 63.570312 91.535156 59.136719 C 98.203125 54.738281 105.1875 50.910156 112.476562 47.644531 C 119.769531 44.378906 127.277344 41.726562 135.003906 39.683594 C 142.726562 37.640625 150.566406 36.234375 158.519531 35.464844 C 166.46875 34.695312 174.433594 34.570312 182.40625 35.097656 C 190.414062 35.589844 198.324219 36.753906 206.132812 38.585938 C 221.929688 42.167969 236.714844 48.21875 250.488281 56.742188 L 253.042969 58.34375 C 253.890625 58.882812 254.753906 59.398438 255.5625 59.988281 L 260.480469 63.433594 C 262.082031 64.648438 263.660156 65.890625 265.238281 67.113281 L 266.429688 68.039062 L 267.578125 69.019531 L 269.867188 70.988281 L 272.152344 72.953125 L 274.347656 75.015625 L 276.542969 77.074219 L 277.636719 78.117188 L 278.65625 79.203125 L 282.820312 83.585938 L 286.800781 88.222656 C 290.699219 92.871094 294.296875 97.738281 297.597656 102.828125 C 300.902344 107.917969 303.878906 113.191406 306.53125 118.644531 C 309.183594 124.101562 311.496094 129.695312 313.460938 135.4375 C 315.429688 141.175781 317.035156 147.011719 318.285156 152.949219 C 317.136719 146.964844 315.628906 141.070312 313.757812 135.273438 C 311.886719 129.472656 309.671875 123.808594 307.105469 118.28125 C 304.542969 112.753906 301.648438 107.40625 298.429688 102.234375 C 295.207031 97.058594 291.683594 92.101562 287.855469 87.363281 L 283.96875 82.660156 L 279.839844 78.167969 L 278.828125 77.046875 L 277.742188 75.972656 L 275.570312 73.828125 L 273.363281 71.664062 L 271.082031 69.632812 L 268.800781 67.59375 L 267.679688 66.589844 L 266.492188 65.628906 C 264.902344 64.359375 263.328125 63.0625 261.726562 61.804688 L 256.777344 58.210938 C 255.964844 57.59375 255.097656 57.054688 254.246094 56.5 L 251.6875 54.824219 C 237.824219 45.890625 222.890625 39.449219 206.878906 35.5 C 198.921875 33.480469 190.851562 32.144531 182.671875 31.488281 C 150.003906 28.632812 116.394531 36.859375 88.566406 54.582031 C 81.609375 59.050781 75.03125 64.015625 68.828125 69.480469 L 64.261719 73.664062 L 59.90625 78.070312 L 58.820312 79.171875 L 57.785156 80.328125 L 55.722656 82.640625 L 53.664062 84.953125 L 51.714844 87.367188 C 49.058594 90.539062 46.667969 93.917969 44.261719 97.28125 L 40.867188 102.480469 C 39.746094 104.222656 38.753906 106.039062 37.691406 107.816406 C 33.585938 115.035156 30.070312 122.527344 27.140625 130.296875 C 24.257812 138.097656 22.015625 146.074219 20.410156 154.234375 C 18.769531 162.398438 17.820312 170.644531 17.558594 178.96875 C 17.300781 187.300781 17.691406 195.605469 18.730469 203.878906 C 19.785156 212.164062 21.523438 220.304688 23.945312 228.296875 L 24.816406 231.304688 C 25.113281 232.308594 25.496094 233.277344 25.832031 234.265625 L 26.875 237.214844 C 27.21875 238.203125 27.5625 239.1875 27.976562 240.148438 L 30.351562 245.945312 L 33.011719 251.617188 C 36.71875 259.128906 40.972656 266.3125 45.777344 273.175781 C 50.660156 279.984375 56.03125 286.386719 61.882812 292.386719 L 66.355469 296.800781 L 71.070312 300.992188 L 72.242188 302.035156 L 73.464844 303.023438 L 75.914062 305 L 78.371094 306.964844 L 80.917969 308.820312 C 94.417969 318.8125 109.679688 326.363281 125.691406 331.507812 C 133.738281 334.042969 141.9375 335.914062 150.289062 337.117188 C 152.375 337.417969 154.457031 337.742188 156.558594 337.90625 L 159.703125 338.210938 C 160.753906 338.308594 161.804688 338.417969 162.855469 338.449219 L 169.171875 338.753906 L 175.5 338.753906 C 192.554688 338.472656 209.113281 335.46875 225.179688 329.746094 L 228.171875 328.6875 C 229.164062 328.316406 230.136719 327.894531 231.117188 327.5 L 234.058594 326.292969 L 235.523438 325.691406 L 236.976562 325.019531 L 242.734375 322.316406 L 248.339844 319.335938 C 255.753906 315.191406 262.820312 310.515625 269.53125 305.3125 Z M 269.648438 305.234375 " fill-opacity="1" fill-rule="nonzero"/></g></g></g><g fill="#221f1f" fill-opacity="1"><g transform="translate(218.038002, 160.358753)"><g><path d="M 46.746094 -84.898438 C 46.605469 -85.019531 46.714844 -84.976562 46.714844 -84.976562 C 45.898438 -85.808594 43.933594 -86.773438 42.804688 -86.011719 C 41.953125 -85.460938 42.425781 -85.210938 42.242188 -84.585938 C 41.507812 -82.082031 40.441406 -79.707031 39.785156 -77.238281 C 38.046875 -70.75 37.042969 -64.035156 36.007812 -57.394531 C 34.972656 -50.757812 34.167969 -44.21875 34.0625 -37.527344 C 34.023438 -34.6875 33.496094 -31.910156 33.34375 -29.113281 C 33.097656 -25.273438 33.144531 -21.382812 33.164062 -17.566406 C 33.097656 -17.71875 31.722656 -21.3125 31.558594 -21.058594 C 31.472656 -20.839844 31.425781 -20.726562 31.460938 -20.652344 C 30.882812 -22.402344 30.597656 -24.738281 30.109375 -26.710938 C 29.40625 -29.589844 28.472656 -32.371094 27.539062 -35.152344 C 27.328125 -36.0625 25.085938 -45.011719 24.132812 -49.515625 C 24.492188 -47.214844 25.144531 -44.035156 25.121094 -43.664062 C 24.25 -47.5625 23.457031 -51.496094 23.152344 -55.554688 C 23.210938 -55.214844 23.34375 -54.90625 23.496094 -54.972656 C 23.726562 -55.074219 23.503906 -57.890625 23.242188 -57.867188 L 23.035156 -57.503906 C 23.042969 -58.328125 23.621094 -58.667969 23.046875 -59.785156 C 22.503906 -60.824219 21.539062 -61.589844 20.394531 -61.914062 C 19.515625 -62.261719 18.066406 -62.453125 17.25 -61.824219 C 16.503906 -61.226562 16.78125 -60.800781 16.640625 -60.285156 C 15.324219 -55.34375 13.527344 -49.832031 12.453125 -44.542969 C 12.066406 -42.917969 12.171875 -41.414062 11.816406 -39.714844 C 11.0625 -36.835938 10.523438 -33.875 9.660156 -31.042969 C 8.859375 -28.054688 8.863281 -25.324219 8.214844 -22.40625 L 6.679688 -14.820312 C 5.867188 -20.476562 4.484375 -25.976562 3.253906 -31.539062 C 2.917969 -32.941406 -0.601562 -47.984375 -0.601562 -47.984375 C -0.675781 -47.949219 1.3125 -39.164062 1.449219 -38.222656 C 0.363281 -43.03125 -0.710938 -48.027344 -2.210938 -52.746094 C -2.242188 -52.824219 -1.6875 -51.335938 -1.644531 -51.445312 C -1.261719 -51.609375 -2.503906 -54.894531 -2.777344 -54.6875 C -2.820312 -54.578125 -2.863281 -54.464844 -2.832031 -54.390625 C -3.128906 -55.078125 -2.980469 -55.78125 -3.410156 -56.777344 C -4.1875 -58.355469 -5.082031 -59.785156 -6.402344 -60.941406 C -7.4375 -61.859375 -8.734375 -62.753906 -10.136719 -62.417969 C -10.476562 -62.363281 -10.453125 -62.097656 -10.867188 -62.007812 C -11.25 -61.84375 -11.460938 -62.117188 -11.84375 -61.949219 C -13.496094 -61.144531 -14.101562 -58.96875 -14.117188 -57.324219 C -14.261719 -55.351562 -12.867188 -49.402344 -10.371094 -53.304688 C -10.203125 -52.921875 -8.839844 -49.144531 -8.816406 -48.882812 C -8.695312 -49.023438 -8.761719 -49.175781 -8.753906 -49.363281 C -8.496094 -48.566406 -8.273438 -47.84375 -8.128906 -47.085938 C -8.238281 -47.128906 -8.320312 -47.730469 -8.472656 -47.664062 C -9.160156 -47.367188 -6.960938 -40.402344 -6.59375 -39.558594 C -6.007812 -37.992188 -5.714844 -36.480469 -5.433594 -34.78125 C -5.289062 -34.027344 -5.140625 -33.269531 -4.921875 -32.546875 C -4.964844 -32.4375 -4.277344 -30.640625 -4.246094 -31.203125 C -4.179688 -31.046875 -4.222656 -30.9375 -4.15625 -30.785156 C -4.265625 -30.828125 -4.300781 -30.90625 -4.332031 -30.980469 C -4.375 -30.871094 -3.695312 -28.253906 -3.738281 -28.144531 C -3.558594 -26.675781 -3.59375 -25.292969 -3.414062 -23.824219 C -2.925781 -20.394531 -2.023438 -17.054688 -1.460938 -13.65625 C -2.09375 -20.574219 -3.046875 -27.808594 -4.433594 -34.578125 C -5.597656 -39.992188 -6.546875 -45.953125 -8.386719 -51.25 C -6.046875 -44.804688 -4.515625 -37.910156 -3.457031 -31.269531 C -2.78125 -27.195312 -2.183594 -23.085938 -1.582031 -18.976562 C -0.953125 -14.789062 -1.074219 -10.457031 -0.332031 -6.226562 C -0.0273438 -4.265625 0.1875 -2.71875 0.335938 -0.691406 C 0.488281 1.335938 0.859375 3.449219 3.273438 3.769531 C 5.761719 4.054688 9.164062 2.035156 9.164062 -0.695312 C 9.152344 -1.148438 9.0625 -1.5625 8.972656 -1.980469 C 8.699219 -4.5 9.367188 -7.15625 9.652344 -9.648438 C 10.160156 -14.144531 10.742188 -18.675781 11.625 -23.15625 C 12.449219 -27.972656 13.414062 -32.667969 14.050781 -37.496094 C 14.359375 -39.726562 15.304688 -41.957031 15.800781 -44.171875 L 17.082031 -49.1875 C 17.097656 -48.738281 18.003906 -44.125 17.925781 -44.09375 C 18.003906 -44.125 17.972656 -44.203125 18.046875 -44.238281 C 18.09375 -43.710938 18.25 -43.140625 18.371094 -42.648438 C 18.21875 -42.582031 18.25 -43.140625 18.097656 -43.074219 C 17.035156 -42.796875 19.210938 -36.09375 19.410156 -35.632812 C 19.789062 -34.34375 19.9375 -32.949219 20.238281 -31.625 C 20.441406 -30.527344 20.960938 -29.753906 21.257812 -29.0625 C 21.117188 -29.183594 21.546875 -28.1875 21.570312 -27.921875 C 21.859375 -27.046875 21.761719 -26.640625 21.867188 -25.777344 C 22.015625 -23.746094 22.761719 -21.613281 23.449219 -19.816406 C 24.832031 -16.414062 26.046875 -12.570312 27.933594 -9.472656 C 29.371094 -7 32.863281 -5.875 35.445312 -7.269531 C 36.832031 -8.054688 36.875 -8.796875 36.648438 -10.15625 C 36.414062 -11.328125 36.484375 -12.636719 36.523438 -14.015625 C 36.675781 -18.910156 36.796875 -23.875 37.25 -28.714844 C 37.53125 -31.839844 37.203125 -34.703125 37.550781 -37.675781 C 37.996094 -41.691406 38.359375 -45.671875 39.023438 -49.601562 C 39.3125 -51.457031 39.371094 -53.210938 39.351562 -54.933594 C 39.398438 -57.136719 40.308594 -59.441406 40.726562 -61.625 C 41.234375 -64.03125 41.585938 -66.367188 42.242188 -68.839844 C 42.847656 -71.011719 43.757812 -73.320312 44.066406 -75.546875 C 44.195312 -76.511719 43.886719 -76.378906 44.277344 -77.367188 C 44.539062 -78.027344 44.996094 -78.863281 45.410156 -79.585938 C 46.203125 -81.113281 48.222656 -83.175781 46.746094 -84.898438 Z M 25.585938 -40.496094 C 25.609375 -40.234375 25.605469 -40.871094 25.605469 -41.503906 C 25.570312 -41.582031 25.613281 -41.691406 25.582031 -41.769531 C 25.816406 -40.597656 25.953125 -39.652344 26.195312 -38.667969 C 25.964844 -39.203125 25.6875 -39.628906 25.585938 -40.496094 Z M 23.859375 -52.035156 C 23.78125 -52.003906 23.796875 -51.554688 23.972656 -50.722656 C 23.828125 -51.476562 23.859375 -52.035156 23.859375 -52.035156 Z M 23.859375 -52.035156 "/></g></g></g><g fill="#221f1f" fill-opacity="1"><g transform="translate(269.9076, 137.866254)"><g><path d="M 11.902344 -27.554688 C 11.316406 -28.484375 10.375 -27.710938 10.003906 -27.09375 C 9.515625 -26.335938 7.878906 -19.617188 8.351562 -19.367188 C 8.578125 -19.46875 8.734375 -19.535156 8.820312 -19.753906 C 8.3125 -17.988281 6.953125 -15.667969 5.992188 -13.886719 C 5.449219 -12.832031 4.210938 -10.019531 2.71875 -10.101562 C -0.449219 -10.273438 0.851562 -21.761719 0.585938 -21.738281 C 0.324219 -21.714844 0.269531 -16.59375 0.316406 -15.429688 C 0.0742188 -18.511719 0.136719 -21.722656 0.5625 -24.730469 C 0.585938 -24.46875 0.523438 -23.984375 0.675781 -24.050781 C 0.863281 -24.039062 1.3125 -26.148438 1.019531 -26.203125 C 0.941406 -26.167969 0.789062 -26.101562 0.746094 -25.992188 C 0.875 -26.320312 1.222656 -26.566406 1.023438 -27.023438 C 0.691406 -27.789062 -1.402344 -27.792969 -2.113281 -27.757812 C -3.835938 -27.738281 -5.359375 -27.261719 -6.175781 -25.996094 C -7.308594 -24.410156 -6.816406 -22.441406 -6.734375 -20.566406 C -6.6875 -20.039062 -5.785156 -13.96875 -5.445312 -14.023438 C -5.324219 -14.167969 -5.355469 -14.242188 -5.347656 -14.429688 L -4.980469 -12.953125 C -5.054688 -12.917969 -5.070312 -13.367188 -5.222656 -13.300781 C -5.835938 -13.035156 -4.484375 -10.34375 -4.242188 -9.992188 C -3.339844 -8.746094 -1.832031 -8.214844 -0.492188 -7.433594 C 0.265625 -6.941406 1.023438 -6.453125 1.914062 -6.292969 C 3.132812 -6 2.21875 -6.425781 2.964844 -6.382812 L 2.8125 -6.316406 C 2.9375 -5.824219 6.179688 -6.320312 6.757812 -6.664062 C 9.175781 -8.4375 9.664062 -12.5625 10.296875 -15.296875 C 10.957031 -17.769531 11.382812 -20.136719 11.855469 -22.617188 C 12.191406 -23.945312 12.839844 -26.230469 11.902344 -27.554688 Z M -5.695312 -31.394531 C -5.441406 -31.230469 -5.539062 -30.824219 -4.867188 -30.75 C -4.234375 -30.753906 -4.058594 -31.191406 -3.664062 -31.542969 C -2.914062 -32.324219 -2.65625 -33.621094 -2.230469 -34.53125 C -2.066406 -34.785156 -2.492188 -34.511719 -2.492188 -34.511719 C -1.898438 -35.863281 -2.273438 -34.421875 -1.585938 -35.359375 C -0.933594 -36.371094 -1.210938 -37.433594 -0.8125 -38.609375 C -1.566406 -37.824219 -2.023438 -36.992188 -2.304688 -35.957031 C -2.636719 -34.628906 -2.972656 -33.9375 -3.585938 -33.035156 C -2.964844 -34.125 -2.804688 -35.011719 -2.570312 -36.570312 C -2.4375 -36.902344 -2.273438 -37.152344 -2.035156 -37.441406 C -2.363281 -37.570312 -2.464844 -37.800781 -2.257812 -38.164062 C -2.195312 -38.644531 -1.800781 -39 -1.738281 -39.480469 C -1.585938 -40.183594 -1.960938 -40.839844 -1.734375 -41.574219 C -1.484375 -42.046875 -1.046875 -42.511719 -0.875 -42.949219 C -0.449219 -43.863281 -0.183594 -45.34375 -0.921875 -46.207031 C -1.625 -46.992188 -2.890625 -47.808594 -3.964844 -47.980469 C -5.195312 -48.085938 -6.671875 -47.71875 -7.546875 -46.792969 C -7.742188 -46.617188 -8.5625 -45.988281 -8.125 -45.8125 C -7.980469 -45.695312 -7.90625 -45.726562 -7.75 -45.792969 C -8.207031 -44.957031 -8.957031 -43.539062 -7.082031 -43.625 C -7.171875 -43.40625 -6.71875 -42.78125 -6.683594 -42.707031 C -6.527344 -42.136719 -6.371094 -38.835938 -6.464844 -37.15625 L -6.144531 -38.9375 C -6.179688 -37.554688 -6.328125 -36.214844 -6.621094 -34.996094 C -6.589844 -36.191406 -7.011719 -34.644531 -6.914062 -34.414062 C -7.921875 -34.433594 -6.660156 -32.15625 -6.484375 -31.960938 C -6.453125 -31.882812 -5.695312 -31.394531 -5.695312 -31.394531 Z M 0.757812 -12.527344 L 0.792969 -12.449219 L 0.835938 -11.921875 L 0.726562 -12.601562 C 0.769531 -12.710938 0.769531 -12.710938 0.757812 -12.527344 Z M -6.582031 -36.378906 C -6.582031 -36.378906 -6.496094 -36.597656 -6.472656 -36.972656 Z M -6.714844 -34.589844 C -6.683594 -34.515625 -6.683594 -34.515625 -6.726562 -34.402344 C -6.726562 -34.402344 -6.757812 -34.480469 -6.835938 -34.449219 C -6.757812 -34.480469 -6.757812 -34.480469 -6.714844 -34.589844 Z M -6.714844 -34.589844 "/></g></g></g><g fill="#221f1f" fill-opacity="1"><g transform="translate(284.388187, 131.586958)"><g><path d="M 22.175781 -32.828125 C 21.601562 -31.214844 21.742188 -29 21.496094 -27.253906 C 21.160156 -24.46875 20.785156 -21.757812 20.335938 -19.015625 C 19.527344 -13.746094 18.75 -8.402344 17.234375 -3.285156 C 16.628906 -1.113281 15.566406 3.992188 12.828125 4.8125 C 10.78125 5.339844 9.351562 2.042969 8.71875 0.585938 C 8.1875 -0.636719 7.734375 -1.898438 7.390625 -3.113281 C 7.167969 -3.835938 6.78125 -6.398438 6.132812 -6.847656 L 6.515625 -4.28125 C 6.195312 -5.234375 5.917969 -6.296875 5.746094 -7.316406 C 5.605469 -7.4375 5.363281 -9.882812 5.21875 -10.636719 C 4.9375 -12.335938 4.65625 -14.035156 4.449219 -15.765625 C 4.167969 -17.464844 3.921875 -19.085938 3.75 -20.742188 C 3.535156 -22.285156 3.773438 -23.210938 4.148438 -24.648438 C 5.738281 -30.433594 6.851562 -36.46875 7.734375 -42.40625 C 8.042969 -44.632812 8.070312 -46.464844 8.742188 -48.484375 C 9.792969 -51.308594 9.800781 -54.859375 9.960938 -57.84375 C 10.304688 -62.726562 10.667969 -69.4375 8.183594 -73.914062 L 8.015625 -74.296875 L 7.90625 -74.339844 C 6.152344 -77.128906 1.863281 -79.457031 -1.042969 -76.921875 C -2.570312 -75.621094 -3.074219 -73.21875 -3.582031 -71.449219 L -4.316406 -68.308594 C -4.5 -67.683594 -4.539062 -66.300781 -4.65625 -65.523438 L -4.613281 -65.632812 L -5.234375 -60.355469 L -5.1875 -61.925781 C -5.605469 -61.835938 -5.863281 -57.808594 -5.925781 -57.328125 C -6.136719 -55.503906 -6.273438 -53.71875 -6.328125 -51.960938 C -6.535156 -48.234375 -6.703125 -44.425781 -6.269531 -40.699219 C -5.914062 -36.941406 -5.746094 -33.191406 -5.464844 -29.398438 C -5.316406 -27.371094 -5.128906 -25.265625 -4.902344 -23.269531 C -4.730469 -21.617188 -4.773438 -18.773438 -3.878906 -17.34375 L -3.648438 -17.441406 C -3.648438 -16.804688 -3.566406 -16.203125 -3.488281 -15.601562 C -3.609375 -16.09375 -3.84375 -16.628906 -3.832031 -16.816406 C -3.984375 -16.113281 -3.109375 -14.308594 -3.121094 -14.121094 C -2.320312 -9.550781 -1.675781 -4.917969 -0.121094 -0.492188 C 1.410156 3.667969 3.734375 9.03125 8.246094 10.625 C 13.277344 12.355469 16.453125 8.339844 18.210938 4.210938 C 20.238281 -0.765625 21.46875 -6.121094 22.496094 -11.304688 C 23.429688 -16.078125 23.730469 -20.847656 24.433594 -25.523438 C 24.6875 -27.453125 25.019531 -29.417969 24.746094 -31.304688 C 24.523438 -32.664062 23.140625 -35.429688 22.175781 -32.828125 Z M 0.703125 -56.105469 C 0.640625 -60.445312 0.546875 -64.867188 1.195312 -69.242188 C 1.367188 -70.320312 2.820312 -76.410156 4.429688 -72.285156 L 4.460938 -72.207031 C 6.167969 -67.851562 5.371094 -62.132812 5.128906 -57.660156 L 4.5 -50.285156 C 4.226562 -47.984375 3.382812 -44.886719 3.632812 -42.628906 C 3.5625 -44.054688 4.175781 -46.414062 4.367188 -47.863281 C 4.6875 -50.277344 4.851562 -52.625 5.09375 -55.003906 C 5.394531 -59.140625 5.78125 -63.496094 5.488281 -67.738281 C 6.492188 -55.976562 4.210938 -43.609375 2.496094 -32.03125 C 1.792969 -39.738281 0.824219 -48.054688 0.703125 -56.105469 Z M -4.074219 -60.40625 C -3.9375 -62.191406 -3.089844 -64.015625 -2.921875 -65.726562 C -3.136719 -61.8125 -3.867188 -58.035156 -4.222656 -54.242188 C -4.257812 -54.316406 -4.324219 -54.472656 -4.28125 -54.582031 C -4.320312 -56.566406 -4.21875 -58.429688 -4.074219 -60.40625 Z M -1.378906 -14.511719 C -1.386719 -14.328125 -1.355469 -14.25 -1.355469 -14.25 C -1.34375 -11.707031 -0.15625 -8.761719 0.378906 -6.261719 C 0.535156 -5.695312 0.582031 -5.167969 0.8125 -4.632812 L 0.714844 -4.859375 L 1.546875 -2.308594 C 0.503906 -5.132812 -0.417969 -8.101562 -1.046875 -11.015625 L -1.011719 -10.941406 C -1.546875 -12.800781 -1.859375 -14.578125 -1.554688 -14.710938 C -1.433594 -14.851562 -1.335938 -14.621094 -1.378906 -14.511719 Z M -1.378906 -14.511719 "/></g></g></g><g fill="#221f1f" fill-opacity="1"><g transform="translate(311.510543, 119.825741)"><g><path d="M 37.175781 -38.332031 L 37.140625 -38.40625 C 35.585938 -40.738281 33.964844 -35.027344 33.671875 -34.445312 C 32.511719 -31.03125 31.605469 -27.449219 30.777344 -23.90625 C 29.980469 -20.285156 29.261719 -16.695312 28.390625 -13.039062 C 27.992188 -11.226562 27.5625 -9.492188 26.941406 -7.769531 C 26.757812 -7.144531 26.40625 -5.441406 25.714844 -5.144531 C 23.035156 -3.980469 20.417969 -15.679688 19.992188 -17.5 C 19.15625 -20.6875 17.660156 -24.769531 18.542969 -27.976562 C 18.738281 -28.789062 21.058594 -37.714844 21.058594 -37.714844 C 20.871094 -37.722656 20.589844 -36.691406 20.40625 -36.066406 L 21.773438 -41.9375 L 21.871094 -42.34375 L 21.949219 -42.378906 L 21.871094 -42.34375 L 22.117188 -43.453125 C 22.230469 -43.410156 22.21875 -43.222656 22.207031 -43.039062 L 22.566406 -44.101562 L 23.429688 -47.570312 C 23.988281 -50.269531 24.402344 -53.089844 24.773438 -55.800781 C 25.316406 -60.222656 25.957031 -66.507812 22.5625 -70.136719 C 20.054688 -72.777344 15.574219 -71.5625 13.203125 -69.261719 C 11.464844 -67.597656 10.402344 -65.226562 9.675781 -62.910156 C 9.34375 -61.582031 9.042969 -60.175781 8.851562 -58.726562 C 8.753906 -58.320312 8.820312 -55.4375 8.722656 -55.03125 L 8.800781 -55.066406 C 8.707031 -54.023438 8.613281 -52.980469 8.671875 -52.003906 C 8.558594 -52.683594 8.410156 -54.074219 8.617188 -54.4375 C 8.203125 -53.714844 8.628906 -51.257812 8.578125 -50.960938 C 8.421875 -43.339844 8.6875 -35.808594 9.769531 -28.269531 C 6.671875 -29.746094 1.617188 -32.378906 -1.355469 -29.359375 C -3.808594 -26.839844 -4.667969 -22.734375 -5.007812 -19.3125 C -5.320312 -16.261719 -4.609375 -13.566406 -4.574219 -10.761719 C -4.578125 -5.933594 -1.796875 2.78125 4.710938 1.417969 C 6.714844 1.003906 7.902344 -0.878906 8.925781 -2.503906 C 10.699219 -5.550781 12.1875 -8.835938 13.492188 -12.132812 C 14.867188 -7.902344 16.683594 -1.410156 21.375 0.378906 C 27.230469 2.757812 28.863281 -4.597656 29.988281 -8.726562 C 31.402344 -14.070312 31.925781 -19.578125 33.40625 -24.773438 C 34.140625 -27.277344 34.875 -29.777344 35.753906 -32.164062 C 36.449219 -33.917969 38.234375 -36.515625 37.175781 -38.332031 Z M 11.171875 -21.046875 C 11.195312 -20.785156 11.261719 -20.632812 11.261719 -20.632812 C 11.753906 -18.660156 12.449219 -17.050781 11.710938 -15.183594 C 11.09375 -13.457031 10.367188 -11.777344 9.640625 -10.097656 C 8.957031 -8.527344 7.558594 -4.1875 5.730469 -3.578125 C 3.484375 -2.878906 2.96875 -8.476562 2.746094 -11.933594 C 2.925781 -8.367188 3.246094 -2.589844 5.839844 -3.535156 C 6.5625 -3.757812 7.445312 -4.867188 8.078125 -6.140625 C 7.523438 -4.902344 6.488281 -3.085938 5.371094 -3.148438 C 3.277344 -3.148438 2.914062 -8.183594 2.691406 -9.539062 C 2.15625 -13.496094 2.152344 -17.5 2.441406 -21.449219 C 2.585938 -23.421875 2.683594 -26.558594 4.226562 -27.410156 L 3.941406 -27.015625 C 3.984375 -27.125 4.0625 -27.15625 4.136719 -27.191406 C 4.609375 -27.578125 5.3125 -27.425781 5.828125 -27.285156 C 7.121094 -27.027344 8.300781 -25.992188 9.421875 -25.292969 C 10.71875 -24.402344 10.746094 -22.867188 11.039062 -21.355469 Z M 15.832031 -44.097656 C 15.800781 -44.171875 15.734375 -44.324219 15.777344 -44.433594 L 15.742188 -44.511719 C 15.71875 -44.773438 15.765625 -44.886719 15.765625 -44.886719 L 15.730469 -44.960938 C 15.367188 -50.628906 15.15625 -56.363281 15.988281 -62.003906 C 16.179688 -63.453125 16.640625 -67.839844 18.835938 -67.609375 C 19.691406 -67.523438 20.277344 -66.59375 20.574219 -65.90625 C 22.875 -61.441406 21.558594 -54.40625 20.851562 -49.730469 C 20.03125 -44.277344 18.871094 -38.769531 17.425781 -33.5 L 18.347656 -35.992188 L 19.046875 -38.570312 L 17.332031 -31.820312 L 17.09375 -30.898438 L 16.921875 -30.457031 C 16.800781 -30.953125 16.984375 -31.578125 17.132812 -32.28125 C 17.046875 -32.058594 16.960938 -31.839844 16.949219 -31.652344 C 16.515625 -35.378906 16.160156 -39.140625 15.882812 -42.933594 C 15.839844 -42.824219 15.847656 -43.011719 15.792969 -43.351562 L 15.855469 -43.832031 C 15.824219 -43.910156 15.789062 -43.984375 15.832031 -44.097656 Z M 12.121094 -35.023438 C 12.132812 -34.574219 12.4375 -32.609375 12.308594 -32.28125 C 12.339844 -32.203125 12.296875 -32.09375 12.222656 -32.0625 C 12.503906 -33.09375 11.6875 -33.921875 11.59375 -34.976562 C 11.550781 -35.503906 11.949219 -36.675781 11.835938 -37.355469 C 12.101562 -36.742188 12.183594 -35.503906 12.121094 -35.023438 Z M 9.140625 -8.515625 C 10.328125 -11.03125 11.402344 -13.589844 12.367188 -16.195312 C 12.644531 -15.132812 11 -12.417969 10.488281 -11.285156 C 9.925781 -9.855469 9.207031 -8.363281 8.457031 -6.945312 L 8.382812 -6.910156 Z M 10.476562 -42.59375 C 10.570312 -41.539062 10.550781 -40.53125 10.457031 -39.488281 C 10.34375 -40.804688 10.074219 -42.054688 10.144531 -43.359375 C 10.238281 -44.402344 10.308594 -45.707031 10.261719 -46.867188 C 10.410156 -45.476562 10.363281 -43.90625 10.476562 -42.59375 Z M 15.855469 -43.832031 L 15.882812 -42.933594 C 15.847656 -43.011719 15.859375 -43.195312 15.792969 -43.351562 Z M 3.691406 -26.542969 C 3.484375 -26.179688 3.386719 -25.773438 3.3125 -25.738281 C 3.464844 -25.804688 3.5625 -26.210938 3.691406 -26.542969 Z M 5.769531 -27.625 C 5.957031 -27.617188 6.144531 -27.605469 6.363281 -27.519531 Z M 20.34375 -35.582031 C 20.308594 -35.660156 20.351562 -35.769531 20.398438 -35.878906 C 20.386719 -35.695312 20.34375 -35.582031 20.34375 -35.582031 Z M 20.398438 -35.878906 L 20.40625 -36.066406 C 20.441406 -35.988281 20.398438 -35.878906 20.398438 -35.878906 Z M 20.398438 -35.878906 "/></g></g></g></svg>